<svg xmlns="http://www.w3.org/2000/svg" xmlns:xlink="http://www.w3.org/1999/xlink" width="1080" zoomAndPan="magnify" viewBox="0 0 810 809.999993" height="1080" preserveAspectRatio="xMidYMid meet" version="1.0"><defs><clipPath id="3e30ad5b5a"><path d="M 170 204 L 761 204 L 761 771.464844 L 170 771.464844 Z M 170 204 " clip-rule="nonzero"/></clipPath><clipPath id="7024264e40"><path d="M 27 38.714844 L 407 38.714844 L 407 418 L 27 418 Z M 27 38.714844 " clip-rule="nonzero"/></clipPath></defs><g clip-path="url(#3e30ad5b5a)"><path fill="#6851ff" d="M 505.113281 771.464844 C 499.359375 771.464844 493.609375 771.269531 487.871094 770.878906 C 482.128906 770.492188 476.40625 769.910156 470.707031 769.132812 C 465.003906 768.359375 459.335938 767.390625 453.699219 766.230469 C 448.0625 765.070312 442.472656 763.722656 436.925781 762.1875 C 431.378906 760.648438 425.894531 758.925781 420.464844 757.015625 C 415.035156 755.109375 409.679688 753.019531 404.390625 750.75 C 399.105469 748.476562 393.898438 746.03125 388.777344 743.40625 C 383.65625 740.785156 378.628906 737.992188 373.695312 735.027344 C 368.765625 732.066406 363.9375 728.9375 359.214844 725.648438 C 354.496094 722.359375 349.890625 718.914062 345.402344 715.3125 C 340.914062 711.710938 336.554688 707.964844 332.320312 704.066406 C 328.085938 700.171875 323.988281 696.136719 320.027344 691.964844 C 316.066406 687.792969 312.25 683.488281 308.578125 679.058594 C 304.910156 674.625 301.394531 670.078125 298.03125 665.40625 C 294.667969 660.738281 291.46875 655.960938 288.429688 651.074219 C 285.390625 646.191406 282.519531 641.207031 279.820312 636.128906 C 277.117188 631.046875 274.589844 625.882812 272.238281 620.632812 C 269.886719 615.378906 267.714844 610.054688 265.722656 604.660156 C 263.730469 599.261719 261.921875 593.800781 260.300781 588.28125 C 258.675781 582.761719 257.242188 577.195312 255.996094 571.578125 C 254.75 565.960938 253.695312 560.308594 252.832031 554.621094 C 251.96875 548.929688 251.300781 543.21875 250.820312 537.488281 C 250.34375 531.753906 250.0625 526.011719 249.972656 520.257812 C 249.886719 514.503906 249.992188 508.753906 250.292969 503.011719 C 250.59375 497.265625 251.089844 491.535156 251.777344 485.824219 C 252.464844 480.113281 253.347656 474.429688 254.417969 468.777344 C 255.492188 463.125 256.753906 457.515625 258.207031 451.949219 C 259.660156 446.378906 261.296875 440.867188 263.125 435.414062 C 264.949219 429.957031 266.957031 424.570312 269.148438 419.246094 C 271.335938 413.925781 273.703125 408.6875 276.25 403.527344 C 278.792969 398.367188 281.511719 393.296875 284.398438 388.320312 C 287.285156 383.34375 290.339844 378.472656 293.554688 373.703125 L 247.261719 327.417969 C 246.699219 326.851562 246.195312 326.234375 245.753906 325.570312 C 245.3125 324.902344 244.9375 324.203125 244.632812 323.464844 C 244.328125 322.726562 244.097656 321.964844 243.941406 321.179688 C 243.789062 320.398438 243.710938 319.605469 243.710938 318.808594 C 243.710938 318.007812 243.789062 317.214844 243.941406 316.433594 C 244.097656 315.648438 244.328125 314.886719 244.632812 314.148438 C 244.9375 313.410156 245.3125 312.710938 245.753906 312.042969 C 246.195312 311.378906 246.699219 310.761719 247.261719 310.195312 L 262.164062 295.175781 C 260 294.375 257.789062 293.75 255.527344 293.308594 C 253.261719 292.863281 250.980469 292.605469 248.675781 292.535156 C 246.371094 292.460938 244.074219 292.574219 241.789062 292.875 C 239.503906 293.175781 237.253906 293.65625 235.046875 294.320312 C 232.878906 294.9375 230.679688 295.410156 228.449219 295.742188 C 226.21875 296.074219 223.976562 296.261719 221.722656 296.304688 C 219.46875 296.347656 217.222656 296.246094 214.984375 296 C 212.742188 295.753906 210.527344 295.363281 208.335938 294.832031 C 206.144531 294.296875 204 293.625 201.894531 292.816406 C 199.789062 292.007812 197.746094 291.066406 195.765625 289.992188 C 193.785156 288.917969 191.878906 287.722656 190.050781 286.402344 C 188.222656 285.082031 186.488281 283.652344 184.84375 282.109375 C 172.628906 269.894531 161.390625 245.472656 181.425781 204.804688 L 203.410156 215.429688 C 192.417969 238.019531 192.050781 254.628906 202.191406 264.277344 C 203.097656 265.054688 204.046875 265.773438 205.046875 266.433594 C 206.042969 267.09375 207.078125 267.683594 208.148438 268.214844 C 209.222656 268.742188 210.324219 269.199219 211.453125 269.589844 C 212.582031 269.980469 213.734375 270.296875 214.902344 270.539062 C 216.074219 270.785156 217.253906 270.957031 218.445312 271.050781 C 219.636719 271.148438 220.828125 271.167969 222.023438 271.113281 C 223.21875 271.058594 224.402344 270.929688 225.582031 270.726562 C 226.757812 270.523438 227.917969 270.246094 229.0625 269.894531 C 231.1875 269.246094 233.34375 268.707031 235.527344 268.28125 C 237.710938 267.855469 239.910156 267.546875 242.125 267.347656 C 244.339844 267.152344 246.5625 267.074219 248.785156 267.109375 C 251.007812 267.144531 253.226562 267.296875 255.433594 267.566406 C 257.640625 267.832031 259.828125 268.214844 262 268.710938 C 264.167969 269.207031 266.304688 269.8125 268.40625 270.53125 C 270.511719 271.25 272.574219 272.078125 274.59375 273.011719 C 276.609375 273.949219 278.574219 274.984375 280.484375 276.125 L 298.808594 258.539062 C 299.375 257.964844 299.992188 257.453125 300.664062 257.003906 C 301.332031 256.554688 302.039062 256.175781 302.78125 255.863281 C 303.527344 255.554688 304.292969 255.320312 305.085938 255.164062 C 305.875 255.003906 306.671875 254.925781 307.480469 254.925781 C 308.285156 254.925781 309.085938 255.003906 309.875 255.164062 C 310.664062 255.320312 311.433594 255.554688 312.175781 255.863281 C 312.921875 256.175781 313.628906 256.554688 314.296875 257.003906 C 314.964844 257.453125 315.585938 257.964844 316.152344 258.539062 L 362.445312 304.824219 C 366.5625 302.046875 370.757812 299.394531 375.027344 296.863281 C 379.300781 294.332031 383.640625 291.929688 388.050781 289.652344 C 392.464844 287.375 396.9375 285.230469 401.476562 283.210938 C 406.011719 281.195312 410.605469 279.316406 415.25 277.566406 C 419.898438 275.820312 424.59375 274.207031 429.332031 272.734375 C 434.074219 271.257812 438.855469 269.925781 443.671875 268.730469 C 448.492188 267.535156 453.34375 266.480469 458.222656 265.570312 C 463.101562 264.65625 468.003906 263.886719 472.929688 263.261719 C 477.855469 262.636719 482.796875 262.152344 487.75 261.816406 C 492.703125 261.476562 497.660156 261.285156 502.625 261.238281 C 507.589844 261.1875 512.554688 261.285156 517.511719 261.527344 C 522.472656 261.769531 527.417969 262.152344 532.355469 262.683594 C 537.292969 263.214844 542.210938 263.886719 547.105469 264.703125 C 552.003906 265.523438 556.871094 266.480469 561.714844 267.582031 C 566.554688 268.683594 571.359375 269.925781 576.128906 271.304688 C 580.898438 272.6875 585.621094 274.207031 590.300781 275.867188 C 594.980469 277.523438 599.609375 279.316406 604.183594 281.242188 C 608.761719 283.171875 613.277344 285.230469 617.730469 287.421875 C 622.1875 289.613281 626.574219 291.929688 630.894531 294.378906 C 635.214844 296.824219 639.457031 299.394531 643.628906 302.089844 C 647.796875 304.785156 651.886719 307.601562 655.890625 310.535156 C 659.894531 313.464844 663.8125 316.515625 667.640625 319.675781 C 671.46875 322.839844 675.199219 326.109375 678.835938 329.488281 C 682.472656 332.867188 686.007812 336.351562 689.441406 339.9375 C 692.871094 343.523438 696.199219 347.207031 699.417969 350.988281 C 702.632812 354.765625 705.738281 358.636719 708.730469 362.601562 C 711.722656 366.5625 714.597656 370.605469 717.355469 374.734375 C 720.109375 378.863281 722.742188 383.070312 725.253906 387.355469 C 727.761719 391.636719 730.148438 395.988281 732.402344 400.410156 C 734.660156 404.832031 736.785156 409.316406 738.777344 413.863281 C 740.773438 418.410156 742.632812 423.007812 744.359375 427.664062 C 746.085938 432.316406 747.671875 437.019531 749.125 441.765625 C 750.578125 446.511719 751.886719 451.296875 753.058594 456.121094 C 754.230469 460.945312 755.261719 465.800781 756.152344 470.683594 C 757.039062 475.566406 757.785156 480.472656 758.386719 485.402344 C 758.988281 490.328125 759.449219 495.269531 759.761719 500.222656 C 760.074219 505.175781 760.242188 510.136719 760.269531 515.101562 C 760.292969 520.066406 760.171875 525.023438 759.90625 529.980469 C 759.640625 534.9375 759.230469 539.882812 758.675781 544.816406 C 758.121094 549.75 757.425781 554.664062 756.585938 559.554688 C 755.742188 564.449219 754.761719 569.3125 753.636719 574.148438 C 752.511719 578.980469 751.246094 583.78125 749.839844 588.539062 C 748.433594 593.300781 746.894531 598.019531 745.210938 602.6875 C 743.53125 607.359375 741.714844 611.976562 739.765625 616.542969 C 737.816406 621.109375 735.734375 625.613281 733.523438 630.058594 C 731.308594 634.5 728.96875 638.875 726.5 643.183594 C 724.03125 647.492188 721.4375 651.722656 718.722656 655.878906 C 716.007812 660.035156 713.175781 664.105469 710.21875 668.097656 C 707.265625 672.085938 704.199219 675.988281 701.019531 679.800781 C 697.839844 683.609375 694.546875 687.324219 691.152344 690.945312 C 687.753906 694.566406 684.25 698.082031 680.648438 701.496094 C 677.046875 704.914062 673.34375 708.21875 669.550781 711.417969 C 665.753906 714.617188 661.867188 717.703125 657.890625 720.675781 C 653.914062 723.648438 649.851562 726.5 645.710938 729.238281 C 641.566406 731.972656 637.347656 734.585938 633.050781 737.074219 C 628.753906 739.5625 624.390625 741.925781 619.957031 744.160156 C 615.523438 746.394531 611.027344 748.496094 606.472656 750.46875 C 601.917969 752.441406 597.304688 754.277344 592.640625 755.980469 C 587.980469 757.683594 583.269531 759.25 578.515625 760.675781 C 573.757812 762.105469 568.964844 763.394531 564.136719 764.542969 C 559.304688 765.691406 554.445312 766.699219 549.558594 767.5625 C 544.667969 768.425781 539.757812 769.148438 534.828125 769.726562 C 529.894531 770.304688 524.953125 770.738281 519.996094 771.027344 C 515.039062 771.316406 510.078125 771.464844 505.113281 771.464844 Z M 651.6875 370.28125 L 634.464844 387.503906 C 636.574219 389.609375 638.632812 391.769531 640.632812 393.980469 C 642.636719 396.1875 644.585938 398.445312 646.476562 400.75 C 648.367188 403.054688 650.203125 405.40625 651.980469 407.800781 C 653.757812 410.195312 655.472656 412.632812 657.128906 415.113281 C 658.789062 417.59375 660.382812 420.113281 661.917969 422.667969 C 663.449219 425.226562 664.917969 427.820312 666.324219 430.449219 C 667.730469 433.082031 669.070312 435.742188 670.347656 438.4375 C 671.621094 441.136719 672.832031 443.859375 673.972656 446.617188 C 675.113281 449.371094 676.1875 452.152344 677.191406 454.960938 C 678.195312 457.765625 679.128906 460.597656 679.996094 463.453125 C 680.863281 466.304688 681.65625 469.179688 682.382812 472.070312 C 683.105469 474.964844 683.761719 477.871094 684.34375 480.796875 C 684.925781 483.722656 685.433594 486.660156 685.871094 489.609375 C 686.308594 492.558594 686.675781 495.515625 686.964844 498.484375 C 687.257812 501.453125 687.476562 504.425781 687.625 507.402344 C 687.769531 510.382812 687.84375 513.363281 687.84375 516.34375 C 687.84375 519.324219 687.769531 522.304688 687.625 525.285156 C 687.476562 528.261719 687.257812 531.234375 686.964844 534.203125 C 686.675781 537.171875 686.308594 540.128906 685.871094 543.078125 C 685.433594 546.03125 684.925781 548.964844 684.34375 551.890625 C 683.761719 554.816406 683.105469 557.726562 682.382812 560.617188 C 681.65625 563.511719 680.863281 566.382812 679.996094 569.238281 C 679.128906 572.089844 678.195312 574.921875 677.191406 577.730469 C 676.1875 580.535156 675.113281 583.316406 673.972656 586.074219 C 672.832031 588.828125 671.621094 591.554688 670.347656 594.25 C 669.070312 596.945312 667.730469 599.605469 666.324219 602.238281 C 664.917969 604.867188 663.449219 607.460938 661.917969 610.019531 C 660.382812 612.578125 658.789062 615.09375 657.128906 617.574219 C 655.472656 620.054688 653.757812 622.492188 651.980469 624.886719 C 650.203125 627.28125 648.367188 629.632812 646.476562 631.9375 C 644.585938 634.242188 642.636719 636.5 640.632812 638.707031 C 638.632812 640.917969 636.574219 643.078125 634.464844 645.1875 L 651.6875 662.40625 C 654.082031 660.015625 656.414062 657.570312 658.6875 655.066406 C 660.960938 652.5625 663.171875 650.003906 665.320312 647.394531 C 667.46875 644.78125 669.550781 642.117188 671.566406 639.402344 C 673.582031 636.6875 675.53125 633.925781 677.410156 631.117188 C 679.292969 628.304688 681.101562 625.449219 682.84375 622.550781 C 684.582031 619.652344 686.25 616.710938 687.847656 613.730469 C 689.441406 610.75 690.964844 607.730469 692.410156 604.675781 C 693.859375 601.617188 695.230469 598.527344 696.523438 595.40625 C 697.820312 592.28125 699.039062 589.128906 700.179688 585.945312 C 701.320312 582.761719 702.382812 579.554688 703.363281 576.316406 C 704.347656 573.082031 705.25 569.824219 706.070312 566.542969 C 706.894531 563.265625 707.636719 559.96875 708.296875 556.652344 C 708.957031 553.335938 709.535156 550.003906 710.03125 546.660156 C 710.527344 543.316406 710.945312 539.960938 711.277344 536.59375 C 711.605469 533.230469 711.855469 529.859375 712.023438 526.480469 C 712.1875 523.105469 712.273438 519.726562 712.273438 516.34375 C 712.273438 512.960938 712.1875 509.582031 712.023438 506.207031 C 711.855469 502.828125 711.605469 499.457031 711.273438 496.09375 C 710.945312 492.726562 710.527344 489.375 710.03125 486.027344 C 709.535156 482.683594 708.957031 479.351562 708.296875 476.039062 C 707.636719 472.722656 706.894531 469.421875 706.070312 466.144531 C 705.25 462.863281 704.347656 459.605469 703.363281 456.371094 C 702.382812 453.136719 701.320312 449.925781 700.179688 446.742188 C 699.039062 443.558594 697.820312 440.40625 696.523438 437.28125 C 695.230469 434.160156 693.859375 431.070312 692.410156 428.011719 C 690.964844 424.957031 689.441406 421.9375 687.847656 418.957031 C 686.25 415.976562 684.582031 413.035156 682.84375 410.136719 C 681.101562 407.238281 679.292969 404.382812 677.410156 401.574219 C 675.53125 398.761719 673.582031 396 671.566406 393.285156 C 669.550781 390.570312 667.46875 387.90625 665.320312 385.296875 C 663.171875 382.683594 660.960938 380.125 658.6875 377.621094 C 656.414062 375.117188 654.082031 372.671875 651.6875 370.28125 Z M 651.6875 370.28125 " fill-opacity="1" fill-rule="nonzero"/></g><g clip-path="url(#7024264e40)"><path fill="#6851ff" d="M 404.707031 202.238281 L 300.882812 196.132812 C 299.96875 196.082031 299.066406 195.929688 298.183594 195.675781 C 297.304688 195.421875 296.460938 195.070312 295.65625 194.628906 C 294.851562 194.183594 294.109375 193.65625 293.425781 193.042969 C 292.738281 192.433594 292.132812 191.75 291.601562 191.003906 C 291.070312 190.25 290.632812 189.445312 290.285156 188.59375 C 289.9375 187.738281 289.691406 186.855469 289.542969 185.949219 C 289.394531 185.039062 289.347656 184.125 289.40625 183.203125 C 289.46875 182.285156 289.628906 181.382812 289.890625 180.5 L 308.335938 117.117188 L 255.8125 156.808594 C 255.066406 157.359375 254.269531 157.816406 253.421875 158.1875 C 252.574219 158.554688 251.695312 158.824219 250.785156 158.996094 C 249.875 159.164062 248.957031 159.230469 248.03125 159.1875 C 247.109375 159.148438 246.199219 159.007812 245.308594 158.761719 C 244.417969 158.523438 243.5625 158.1875 242.746094 157.757812 C 241.933594 157.328125 241.175781 156.808594 240.476562 156.207031 C 239.78125 155.605469 239.15625 154.929688 238.613281 154.1875 C 238.066406 153.441406 237.609375 152.648438 237.246094 151.800781 L 210.984375 90.738281 L 196.816406 154.730469 C 196.613281 155.644531 196.3125 156.523438 195.910156 157.367188 C 195.511719 158.207031 195.019531 158.996094 194.4375 159.726562 C 193.855469 160.457031 193.195312 161.113281 192.464844 161.691406 C 191.730469 162.269531 190.941406 162.761719 190.097656 163.160156 C 189.261719 163.570312 188.386719 163.878906 187.480469 164.089844 C 186.574219 164.300781 185.652344 164.402344 184.722656 164.402344 C 183.792969 164.402344 182.871094 164.300781 181.964844 164.089844 C 181.058594 163.878906 180.183594 163.570312 179.347656 163.160156 L 120.59375 132.75 L 151.011719 191.492188 C 151.421875 192.328125 151.730469 193.199219 151.941406 194.105469 C 152.152344 195.015625 152.257812 195.933594 152.257812 196.863281 C 152.257812 197.796875 152.152344 198.714844 151.941406 199.625 C 151.730469 200.53125 151.421875 201.402344 151.011719 202.238281 C 150.613281 203.082031 150.121094 203.871094 149.542969 204.605469 C 148.960938 205.335938 148.308594 205.996094 147.578125 206.578125 C 146.847656 207.160156 146.058594 207.652344 145.214844 208.050781 C 144.371094 208.453125 143.496094 208.753906 142.582031 208.957031 L 78.578125 223.121094 L 139.652344 249.378906 C 140.496094 249.742188 141.292969 250.199219 142.035156 250.746094 C 142.78125 251.289062 143.453125 251.914062 144.058594 252.609375 C 144.660156 253.308594 145.175781 254.066406 145.609375 254.878906 C 146.039062 255.695312 146.375 256.546875 146.613281 257.4375 C 146.859375 258.332031 147 259.238281 147.039062 260.164062 C 147.078125 261.089844 147.015625 262.003906 146.84375 262.914062 C 146.675781 263.824219 146.40625 264.703125 146.039062 265.554688 C 145.667969 266.402344 145.207031 267.199219 144.660156 267.941406 L 104.960938 320.457031 L 168.355469 301.402344 C 169.238281 301.140625 170.140625 300.980469 171.058594 300.921875 C 171.980469 300.863281 172.894531 300.90625 173.804688 301.054688 C 174.714844 301.203125 175.59375 301.449219 176.449219 301.796875 C 177.300781 302.144531 178.105469 302.585938 178.859375 303.113281 C 179.609375 303.644531 180.289062 304.253906 180.902344 304.9375 C 181.511719 305.621094 182.039062 306.367188 182.484375 307.167969 C 182.929688 307.972656 183.277344 308.816406 183.53125 309.695312 C 183.785156 310.578125 183.9375 311.480469 183.988281 312.394531 L 189.976562 416.203125 L 165.546875 417.542969 L 161.757812 329.003906 L 77.476562 354.40625 C 76.867188 354.582031 76.246094 354.710938 75.617188 354.792969 C 74.984375 354.871094 74.351562 354.902344 73.71875 354.882812 C 73.082031 354.867188 72.453125 354.796875 71.828125 354.683594 C 71.203125 354.566406 70.589844 354.398438 69.992188 354.1875 C 69.394531 353.976562 68.816406 353.71875 68.257812 353.414062 C 67.695312 353.113281 67.164062 352.769531 66.660156 352.382812 C 66.15625 351.996094 65.683594 351.574219 65.242188 351.117188 C 64.804688 350.65625 64.402344 350.164062 64.042969 349.644531 C 63.667969 349.125 63.339844 348.582031 63.050781 348.015625 C 62.761719 347.445312 62.519531 346.859375 62.324219 346.253906 C 62.128906 345.648438 61.980469 345.027344 61.882812 344.398438 C 61.785156 343.769531 61.734375 343.136719 61.734375 342.5 C 61.734375 341.863281 61.785156 341.226562 61.882812 340.597656 C 61.980469 339.96875 62.128906 339.351562 62.324219 338.746094 C 62.519531 338.140625 62.761719 337.550781 63.050781 336.984375 C 63.339844 336.414062 63.667969 335.871094 64.042969 335.355469 L 116.566406 265.378906 L 34.847656 230.449219 C 34.253906 230.199219 33.679688 229.902344 33.132812 229.5625 C 32.582031 229.21875 32.066406 228.839844 31.578125 228.414062 C 31.089844 227.992188 30.636719 227.53125 30.222656 227.035156 C 29.808594 226.542969 29.433594 226.015625 29.101562 225.460938 C 28.769531 224.90625 28.484375 224.328125 28.242188 223.730469 C 28.003906 223.128906 27.8125 222.515625 27.667969 221.886719 C 27.527344 221.253906 27.433594 220.617188 27.394531 219.972656 C 27.351562 219.328125 27.363281 218.683594 27.421875 218.039062 C 27.484375 217.398438 27.597656 216.761719 27.757812 216.136719 C 27.917969 215.511719 28.128906 214.902344 28.386719 214.308594 C 28.644531 213.71875 28.949219 213.148438 29.296875 212.605469 C 29.644531 212.0625 30.035156 211.546875 30.464844 211.066406 C 30.894531 210.582031 31.359375 210.136719 31.863281 209.730469 C 32.363281 209.320312 32.890625 208.953125 33.453125 208.628906 C 34.011719 208.304688 34.589844 208.027344 35.195312 207.796875 C 35.796875 207.5625 36.414062 207.378906 37.046875 207.246094 L 122.550781 188.316406 L 81.753906 109.667969 C 81.453125 109.09375 81.199219 108.503906 80.992188 107.890625 C 80.785156 107.277344 80.628906 106.652344 80.523438 106.011719 C 80.417969 105.375 80.359375 104.734375 80.355469 104.085938 C 80.351562 103.4375 80.398438 102.796875 80.496094 102.15625 C 80.59375 101.515625 80.742188 100.890625 80.9375 100.273438 C 81.136719 99.65625 81.378906 99.0625 81.671875 98.484375 C 81.964844 97.90625 82.300781 97.355469 82.679688 96.832031 C 83.058594 96.308594 83.476562 95.820312 83.933594 95.363281 C 84.390625 94.902344 84.882812 94.484375 85.40625 94.105469 C 85.929688 93.726562 86.480469 93.390625 87.058594 93.097656 C 87.632812 92.808594 88.230469 92.5625 88.847656 92.367188 C 89.464844 92.167969 90.089844 92.019531 90.730469 91.925781 C 91.371094 91.828125 92.011719 91.78125 92.660156 91.785156 C 93.308594 91.789062 93.949219 91.84375 94.585938 91.953125 C 95.226562 92.058594 95.851562 92.214844 96.464844 92.421875 C 97.078125 92.628906 97.667969 92.878906 98.242188 93.179688 L 177.027344 133.96875 L 195.960938 48.484375 C 196.089844 47.839844 196.265625 47.214844 196.496094 46.601562 C 196.726562 45.988281 197 45.398438 197.324219 44.828125 C 197.648438 44.261719 198.015625 43.722656 198.425781 43.214844 C 198.835938 42.703125 199.285156 42.230469 199.773438 41.792969 C 200.257812 41.355469 200.777344 40.960938 201.328125 40.605469 C 201.878906 40.25 202.453125 39.945312 203.050781 39.683594 C 203.652344 39.421875 204.269531 39.207031 204.902344 39.046875 C 205.535156 38.882812 206.179688 38.773438 206.832031 38.714844 C 207.464844 38.660156 208.097656 38.660156 208.730469 38.703125 C 209.363281 38.75 209.988281 38.847656 210.609375 38.992188 C 211.226562 39.136719 211.828125 39.328125 212.417969 39.566406 C 213.007812 39.804688 213.574219 40.085938 214.117188 40.414062 C 214.660156 40.738281 215.175781 41.105469 215.664062 41.511719 C 216.152344 41.921875 216.605469 42.363281 217.023438 42.839844 C 217.441406 43.316406 217.820312 43.824219 218.160156 44.363281 C 218.5 44.898438 218.792969 45.457031 219.046875 46.039062 L 254.101562 127.863281 L 324.09375 75.351562 C 324.601562 74.980469 325.136719 74.652344 325.699219 74.363281 C 326.261719 74.078125 326.839844 73.835938 327.4375 73.636719 C 328.039062 73.441406 328.648438 73.289062 329.269531 73.1875 C 329.890625 73.082031 330.519531 73.027344 331.148438 73.023438 C 331.777344 73.015625 332.40625 73.058594 333.03125 73.152344 C 333.652344 73.242188 334.265625 73.378906 334.871094 73.566406 C 335.472656 73.753906 336.054688 73.984375 336.621094 74.257812 C 337.191406 74.535156 337.730469 74.855469 338.25 75.214844 C 338.765625 75.574219 339.253906 75.972656 339.707031 76.410156 C 340.164062 76.84375 340.582031 77.3125 340.964844 77.8125 C 341.347656 78.3125 341.691406 78.839844 341.992188 79.394531 C 342.292969 79.949219 342.550781 80.523438 342.765625 81.113281 C 342.976562 81.707031 343.144531 82.316406 343.261719 82.933594 C 343.378906 83.554688 343.449219 84.175781 343.472656 84.808594 C 343.496094 85.4375 343.46875 86.066406 343.394531 86.691406 C 343.316406 87.316406 343.195312 87.933594 343.023438 88.539062 L 317.742188 173.050781 L 406.050781 177.8125 Z M 404.707031 202.238281 " fill-opacity="1" fill-rule="nonzero"/></g></svg>