<svg xmlns="http://www.w3.org/2000/svg" xmlns:xlink="http://www.w3.org/1999/xlink" width="1080" zoomAndPan="magnify" viewBox="0 0 810 809.999993" height="1080" preserveAspectRatio="xMidYMid meet" version="1.0"><defs><clipPath id="8571720a50"><path d="M 160 195 L 776 195 L 776 786.988281 L 160 786.988281 Z M 160 195 " clip-rule="nonzero"/></clipPath><clipPath id="0deee333cf"><path d="M 10 22.738281 L 407 22.738281 L 407 418 L 10 418 Z M 10 22.738281 " clip-rule="nonzero"/></clipPath></defs><g clip-path="url(#8571720a50)"><path fill="#181930" d="M 509.503906 786.988281 C 503.496094 786.988281 497.5 786.785156 491.507812 786.378906 C 485.515625 785.972656 479.546875 785.367188 473.597656 784.558594 C 467.644531 783.746094 461.730469 782.738281 455.847656 781.53125 C 449.964844 780.320312 444.132812 778.914062 438.34375 777.3125 C 432.558594 775.707031 426.832031 773.910156 421.167969 771.917969 C 415.503906 769.929688 409.910156 767.75 404.394531 765.382812 C 398.875 763.011719 393.445312 760.460938 388.101562 757.726562 C 382.757812 754.988281 377.511719 752.074219 372.363281 748.984375 C 367.214844 745.894531 362.179688 742.632812 357.25 739.203125 C 352.324219 735.773438 347.519531 732.179688 342.835938 728.421875 C 338.152344 724.667969 333.601562 720.757812 329.183594 716.695312 C 324.765625 712.632812 320.488281 708.421875 316.355469 704.070312 C 312.222656 699.71875 308.238281 695.230469 304.410156 690.609375 C 300.578125 685.988281 296.910156 681.242188 293.402344 676.371094 C 289.890625 671.5 286.550781 666.519531 283.382812 661.421875 C 280.210938 656.328125 277.214844 651.128906 274.394531 645.832031 C 271.574219 640.535156 268.9375 635.148438 266.484375 629.671875 C 264.027344 624.195312 261.761719 618.640625 259.683594 613.011719 C 257.605469 607.382812 255.71875 601.6875 254.023438 595.929688 C 252.332031 590.175781 250.835938 584.367188 249.535156 578.507812 C 248.234375 572.648438 247.132812 566.753906 246.234375 560.820312 C 245.332031 554.886719 244.632812 548.933594 244.136719 542.953125 C 243.636719 536.972656 243.34375 530.980469 243.25 524.980469 C 243.160156 518.980469 243.269531 512.984375 243.582031 506.992188 C 243.898438 501 244.414062 495.027344 245.132812 489.066406 C 245.851562 483.109375 246.769531 477.183594 247.890625 471.289062 C 249.007812 465.394531 250.328125 459.542969 251.84375 453.734375 C 253.359375 447.929688 255.066406 442.179688 256.972656 436.488281 C 258.878906 430.800781 260.972656 425.179688 263.257812 419.628906 C 265.542969 414.082031 268.015625 408.617188 270.671875 403.234375 C 273.324219 397.851562 276.160156 392.566406 279.171875 387.375 C 282.1875 382.183594 285.371094 377.101562 288.730469 372.125 L 240.421875 323.851562 C 239.832031 323.261719 239.308594 322.617188 238.847656 321.925781 C 238.382812 321.230469 237.996094 320.5 237.675781 319.726562 C 237.359375 318.957031 237.117188 318.164062 236.957031 317.347656 C 236.792969 316.53125 236.714844 315.703125 236.714844 314.871094 C 236.714844 314.039062 236.792969 313.210938 236.957031 312.394531 C 237.117188 311.578125 237.359375 310.785156 237.675781 310.015625 C 237.996094 309.242188 238.382812 308.511719 238.847656 307.816406 C 239.308594 307.125 239.832031 306.480469 240.421875 305.890625 L 255.972656 290.222656 C 253.714844 289.386719 251.40625 288.738281 249.042969 288.277344 C 246.683594 287.8125 244.300781 287.542969 241.894531 287.46875 C 239.488281 287.394531 237.09375 287.511719 234.707031 287.824219 C 232.324219 288.136719 229.976562 288.640625 227.671875 289.332031 C 225.410156 289.976562 223.117188 290.46875 220.789062 290.816406 C 218.460938 291.164062 216.121094 291.359375 213.769531 291.402344 C 211.417969 291.449219 209.074219 291.339844 206.734375 291.085938 C 204.394531 290.828125 202.085938 290.421875 199.796875 289.863281 C 197.511719 289.308594 195.273438 288.609375 193.078125 287.761719 C 190.882812 286.917969 188.75 285.9375 186.679688 284.816406 C 184.613281 283.695312 182.625 282.449219 180.71875 281.074219 C 178.808594 279.699219 177 278.203125 175.285156 276.59375 C 162.539062 263.855469 150.808594 238.382812 171.714844 195.964844 L 194.660156 207.046875 C 183.1875 230.613281 182.804688 247.933594 193.382812 258 C 194.332031 258.808594 195.324219 259.558594 196.367188 260.246094 C 197.40625 260.933594 198.484375 261.550781 199.605469 262.101562 C 200.722656 262.652344 201.871094 263.132812 203.050781 263.539062 C 204.230469 263.945312 205.429688 264.273438 206.652344 264.53125 C 207.871094 264.785156 209.105469 264.960938 210.347656 265.0625 C 211.589844 265.164062 212.835938 265.183594 214.082031 265.128906 C 215.328125 265.070312 216.566406 264.9375 217.792969 264.722656 C 219.023438 264.511719 220.234375 264.222656 221.425781 263.855469 C 223.648438 263.179688 225.894531 262.617188 228.175781 262.171875 C 230.453125 261.730469 232.746094 261.40625 235.058594 261.203125 C 237.371094 260.996094 239.6875 260.914062 242.007812 260.953125 C 244.332031 260.988281 246.644531 261.148438 248.949219 261.425781 C 251.253906 261.707031 253.535156 262.101562 255.796875 262.621094 C 258.0625 263.136719 260.289062 263.773438 262.488281 264.523438 C 264.683594 265.273438 266.835938 266.132812 268.941406 267.109375 C 271.046875 268.082031 273.097656 269.164062 275.089844 270.351562 L 294.210938 252.011719 C 294.804688 251.414062 295.449219 250.882812 296.148438 250.414062 C 296.84375 249.941406 297.582031 249.546875 298.359375 249.222656 C 299.136719 248.898438 299.9375 248.65625 300.761719 248.492188 C 301.585938 248.324219 302.417969 248.242188 303.261719 248.242188 C 304.101562 248.242188 304.9375 248.324219 305.761719 248.492188 C 306.585938 248.65625 307.386719 248.898438 308.164062 249.222656 C 308.941406 249.546875 309.675781 249.941406 310.375 250.414062 C 311.074219 250.882812 311.71875 251.414062 312.3125 252.011719 L 360.621094 300.285156 C 364.917969 297.390625 369.292969 294.625 373.75 291.984375 C 378.207031 289.347656 382.738281 286.839844 387.34375 284.464844 C 391.945312 282.089844 396.617188 279.847656 401.351562 277.746094 C 406.085938 275.644531 410.878906 273.679688 415.726562 271.859375 C 420.578125 270.035156 425.476562 268.355469 430.421875 266.816406 C 435.371094 265.277344 440.359375 263.886719 445.386719 262.640625 C 450.414062 261.394531 455.476562 260.296875 460.570312 259.34375 C 465.664062 258.394531 470.777344 257.589844 475.917969 256.9375 C 481.058594 256.285156 486.214844 255.78125 491.382812 255.429688 C 496.550781 255.078125 501.726562 254.875 506.90625 254.828125 C 512.089844 254.777344 517.265625 254.875 522.441406 255.128906 C 527.617188 255.378906 532.78125 255.78125 537.933594 256.335938 C 543.082031 256.886719 548.214844 257.589844 553.324219 258.441406 C 558.4375 259.296875 563.515625 260.296875 568.570312 261.445312 C 573.621094 262.59375 578.636719 263.886719 583.613281 265.328125 C 588.589844 266.769531 593.519531 268.355469 598.402344 270.082031 C 603.285156 271.8125 608.117188 273.683594 612.890625 275.691406 C 617.664062 277.703125 622.378906 279.851562 627.027344 282.136719 C 631.675781 284.421875 636.253906 286.839844 640.761719 289.390625 C 645.269531 291.945312 649.699219 294.625 654.050781 297.4375 C 658.402344 300.246094 662.667969 303.183594 666.847656 306.242188 C 671.027344 309.300781 675.113281 312.480469 679.109375 315.777344 C 683.101562 319.074219 686.996094 322.488281 690.792969 326.011719 C 694.585938 329.539062 698.277344 333.171875 701.859375 336.910156 C 705.441406 340.652344 708.910156 344.492188 712.269531 348.433594 C 715.628906 352.378906 718.867188 356.414062 721.992188 360.546875 C 725.113281 364.679688 728.113281 368.898438 730.988281 373.203125 C 733.863281 377.511719 736.613281 381.898438 739.230469 386.363281 C 741.851562 390.832031 744.339844 395.371094 746.691406 399.984375 C 749.046875 404.59375 751.265625 409.273438 753.347656 414.011719 C 755.429688 418.753906 757.367188 423.550781 759.171875 428.40625 C 760.972656 433.261719 762.628906 438.164062 764.144531 443.117188 C 765.65625 448.066406 767.027344 453.058594 768.25 458.089844 C 769.472656 463.121094 770.546875 468.183594 771.476562 473.277344 C 772.402344 478.371094 773.179688 483.488281 773.808594 488.625 C 774.4375 493.765625 774.914062 498.917969 775.242188 504.085938 C 775.570312 509.253906 775.746094 514.425781 775.773438 519.601562 C 775.796875 524.78125 775.671875 529.953125 775.394531 535.125 C 775.117188 540.292969 774.691406 545.453125 774.113281 550.597656 C 773.53125 555.742188 772.804688 560.867188 771.925781 565.96875 C 771.050781 571.070312 770.023438 576.144531 768.851562 581.1875 C 767.675781 586.230469 766.355469 591.234375 764.890625 596.199219 C 763.425781 601.167969 761.8125 606.085938 760.058594 610.957031 C 758.308594 615.828125 756.414062 620.644531 754.378906 625.40625 C 752.34375 630.167969 750.171875 634.867188 747.859375 639.5 C 745.550781 644.136719 743.109375 648.699219 740.53125 653.191406 C 737.957031 657.683594 735.253906 662.097656 732.417969 666.433594 C 729.585938 670.765625 726.625 675.015625 723.542969 679.175781 C 720.460938 683.339844 717.261719 687.40625 713.941406 691.382812 C 710.621094 695.355469 707.191406 699.234375 703.644531 703.007812 C 700.097656 706.78125 696.445312 710.449219 692.683594 714.011719 C 688.925781 717.574219 685.0625 721.023438 681.101562 724.359375 C 677.140625 727.695312 673.082031 730.914062 668.933594 734.015625 C 664.785156 737.117188 660.546875 740.09375 656.222656 742.945312 C 651.898438 745.796875 647.496094 748.523438 643.015625 751.117188 C 638.53125 753.714844 633.976562 756.179688 629.351562 758.507812 C 624.722656 760.839844 620.03125 763.03125 615.277344 765.089844 C 610.523438 767.144531 605.710938 769.0625 600.84375 770.839844 C 595.976562 772.613281 591.0625 774.246094 586.101562 775.738281 C 581.140625 777.226562 576.136719 778.570312 571.097656 779.769531 C 566.054688 780.964844 560.984375 782.015625 555.882812 782.917969 C 550.78125 783.820312 545.65625 784.574219 540.511719 785.175781 C 535.363281 785.777344 530.207031 786.230469 525.035156 786.53125 C 519.859375 786.835938 514.683594 786.984375 509.503906 786.988281 Z M 662.464844 368.558594 L 644.492188 386.519531 C 646.691406 388.71875 648.835938 390.96875 650.925781 393.273438 C 653.015625 395.578125 655.050781 397.933594 657.023438 400.339844 C 659 402.742188 660.914062 405.195312 662.765625 407.691406 C 664.621094 410.191406 666.414062 412.730469 668.140625 415.316406 C 669.871094 417.902344 671.535156 420.53125 673.136719 423.199219 C 674.734375 425.867188 676.269531 428.570312 677.738281 431.316406 C 679.203125 434.058594 680.601562 436.835938 681.933594 439.644531 C 683.265625 442.457031 684.527344 445.300781 685.714844 448.171875 C 686.90625 451.046875 688.027344 453.949219 689.074219 456.875 C 690.125 459.804688 691.101562 462.757812 692.003906 465.734375 C 692.90625 468.710938 693.738281 471.707031 694.492188 474.722656 C 695.25 477.742188 695.933594 480.773438 696.539062 483.824219 C 697.144531 486.875 697.679688 489.9375 698.132812 493.015625 C 698.589844 496.089844 698.972656 499.175781 699.277344 502.273438 C 699.582031 505.367188 699.8125 508.46875 699.964844 511.574219 C 700.117188 514.679688 700.191406 517.789062 700.191406 520.898438 C 700.191406 524.011719 700.117188 527.117188 699.964844 530.226562 C 699.8125 533.332031 699.582031 536.433594 699.277344 539.527344 C 698.972656 542.621094 698.589844 545.707031 698.132812 548.785156 C 697.679688 551.863281 697.144531 554.925781 696.539062 557.976562 C 695.933594 561.027344 695.25 564.058594 694.492188 567.078125 C 693.738281 570.09375 692.90625 573.089844 692.003906 576.066406 C 691.101562 579.042969 690.125 581.996094 689.074219 584.921875 C 688.027344 587.851562 686.90625 590.753906 685.714844 593.625 C 684.527344 596.5 683.265625 599.34375 681.933594 602.152344 C 680.601562 604.964844 679.203125 607.742188 677.738281 610.484375 C 676.269531 613.230469 674.734375 615.933594 673.136719 618.601562 C 671.535156 621.269531 669.871094 623.894531 668.140625 626.480469 C 666.414062 629.066406 664.621094 631.609375 662.765625 634.109375 C 660.914062 636.605469 659 639.058594 657.023438 641.460938 C 655.050781 643.867188 653.015625 646.21875 650.925781 648.523438 C 648.835938 650.828125 646.691406 653.082031 644.492188 655.28125 L 662.464844 673.242188 C 664.960938 670.75 667.394531 668.199219 669.769531 665.585938 C 672.140625 662.976562 674.445312 660.308594 676.6875 657.582031 C 678.929688 654.859375 681.101562 652.082031 683.207031 649.25 C 685.308594 646.417969 687.34375 643.535156 689.304688 640.605469 C 691.269531 637.675781 693.15625 634.695312 694.972656 631.671875 C 696.789062 628.648438 698.53125 625.582031 700.195312 622.472656 C 701.859375 619.363281 703.449219 616.214844 704.960938 613.027344 C 706.46875 609.839844 707.902344 606.617188 709.253906 603.359375 C 710.605469 600.101562 711.875 596.8125 713.066406 593.492188 C 714.257812 590.171875 715.363281 586.828125 716.390625 583.453125 C 717.414062 580.078125 718.355469 576.679688 719.214844 573.257812 C 720.074219 569.839844 720.847656 566.398438 721.535156 562.941406 C 722.226562 559.480469 722.828125 556.007812 723.347656 552.519531 C 723.867188 549.03125 724.300781 545.53125 724.644531 542.023438 C 724.992188 538.511719 725.25 534.996094 725.425781 531.472656 C 725.597656 527.953125 725.683594 524.425781 725.683594 520.898438 C 725.683594 517.375 725.597656 513.847656 725.425781 510.328125 C 725.25 506.804688 724.992188 503.289062 724.644531 499.777344 C 724.300781 496.269531 723.867188 492.769531 723.347656 489.28125 C 722.828125 485.792969 722.226562 482.320312 721.535156 478.859375 C 720.847656 475.402344 720.074219 471.960938 719.214844 468.542969 C 718.355469 465.121094 717.414062 461.722656 716.390625 458.347656 C 715.363281 454.972656 714.257812 451.625 713.066406 448.304688 C 711.875 444.988281 710.605469 441.699219 709.253906 438.441406 C 707.902344 435.183594 706.46875 431.960938 704.960938 428.773438 C 703.449219 425.585938 701.859375 422.4375 700.195312 419.328125 C 698.53125 416.21875 696.789062 413.152344 694.972656 410.128906 C 693.15625 407.101562 691.269531 404.125 689.304688 401.195312 C 687.34375 398.265625 685.308594 395.382812 683.207031 392.550781 C 681.101562 389.71875 678.929688 386.941406 676.6875 384.21875 C 674.445312 381.492188 672.140625 378.824219 669.769531 376.214844 C 667.394531 373.601562 664.960938 371.050781 662.464844 368.558594 Z M 662.464844 368.558594 " fill-opacity="1" fill-rule="nonzero"/></g><g clip-path="url(#0deee333cf)"><path fill="#181930" d="M 404.726562 193.292969 L 296.378906 186.921875 C 295.421875 186.871094 294.484375 186.710938 293.5625 186.445312 C 292.640625 186.179688 291.761719 185.816406 290.921875 185.351562 C 290.085938 184.890625 289.308594 184.339844 288.59375 183.703125 C 287.878906 183.0625 287.246094 182.355469 286.691406 181.574219 C 286.136719 180.785156 285.679688 179.949219 285.316406 179.058594 C 284.953125 178.167969 284.695312 177.25 284.542969 176.300781 C 284.386719 175.351562 284.339844 174.398438 284.402344 173.4375 C 284.464844 172.480469 284.632812 171.539062 284.90625 170.617188 L 304.152344 104.511719 L 249.34375 145.90625 C 248.566406 146.480469 247.734375 146.960938 246.847656 147.347656 C 245.964844 147.730469 245.046875 148.011719 244.097656 148.1875 C 243.148438 148.363281 242.191406 148.433594 241.226562 148.390625 C 240.257812 148.351562 239.3125 148.203125 238.378906 147.945312 C 237.449219 147.699219 236.558594 147.347656 235.710938 146.898438 C 234.859375 146.449219 234.070312 145.910156 233.339844 145.28125 C 232.613281 144.652344 231.960938 143.949219 231.394531 143.175781 C 230.824219 142.398438 230.347656 141.570312 229.96875 140.6875 L 202.5625 77 L 187.777344 143.742188 C 187.566406 144.695312 187.253906 145.609375 186.832031 146.488281 C 186.414062 147.367188 185.902344 148.191406 185.292969 148.953125 C 184.683594 149.714844 184 150.398438 183.234375 151 C 182.46875 151.605469 181.648438 152.117188 180.765625 152.53125 C 179.890625 152.960938 178.980469 153.28125 178.035156 153.5 C 177.089844 153.722656 176.128906 153.832031 175.15625 153.832031 C 174.183594 153.832031 173.226562 153.722656 172.277344 153.5 C 171.332031 153.28125 170.421875 152.960938 169.546875 152.53125 L 108.238281 120.816406 L 139.976562 182.082031 C 140.402344 182.953125 140.726562 183.863281 140.945312 184.808594 C 141.167969 185.757812 141.277344 186.714844 141.277344 187.6875 C 141.277344 188.660156 141.167969 189.617188 140.945312 190.5625 C 140.726562 191.511719 140.402344 192.417969 139.976562 193.292969 C 139.558594 194.171875 139.050781 194.996094 138.445312 195.757812 C 137.839844 196.523438 137.15625 197.207031 136.394531 197.816406 C 135.632812 198.421875 134.808594 198.9375 133.929688 199.355469 C 133.050781 199.773438 132.132812 200.089844 131.179688 200.296875 L 64.386719 215.074219 L 128.121094 242.457031 C 129.003906 242.839844 129.835938 243.3125 130.613281 243.882812 C 131.386719 244.453125 132.089844 245.101562 132.71875 245.828125 C 133.347656 246.554688 133.886719 247.34375 134.339844 248.195312 C 134.789062 249.046875 135.136719 249.9375 135.386719 250.863281 C 135.644531 251.796875 135.792969 252.742188 135.832031 253.707031 C 135.875 254.671875 135.804688 255.628906 135.628906 256.578125 C 135.453125 257.527344 135.171875 258.441406 134.785156 259.328125 C 134.402344 260.210938 133.921875 261.042969 133.347656 261.820312 L 91.921875 316.589844 L 158.074219 296.71875 C 158.996094 296.445312 159.9375 296.277344 160.898438 296.214844 C 161.859375 296.15625 162.8125 296.203125 163.761719 296.355469 C 164.710938 296.511719 165.632812 296.769531 166.523438 297.132812 C 167.414062 297.492188 168.25 297.949219 169.039062 298.503906 C 169.820312 299.058594 170.53125 299.691406 171.167969 300.40625 C 171.808594 301.117188 172.359375 301.894531 172.820312 302.734375 C 173.285156 303.570312 173.648438 304.449219 173.914062 305.371094 C 174.179688 306.289062 174.339844 307.226562 174.390625 308.183594 L 180.636719 416.453125 L 155.144531 417.855469 L 151.191406 325.507812 L 63.242188 352 C 62.605469 352.183594 61.957031 352.320312 61.296875 352.402344 C 60.640625 352.488281 59.980469 352.519531 59.316406 352.5 C 58.652344 352.480469 57.996094 352.410156 57.34375 352.289062 C 56.691406 352.167969 56.054688 351.996094 55.429688 351.773438 C 54.804688 351.550781 54.199219 351.28125 53.617188 350.96875 C 53.035156 350.652344 52.480469 350.292969 51.953125 349.890625 C 51.425781 349.488281 50.933594 349.046875 50.472656 348.566406 C 50.015625 348.089844 49.597656 347.578125 49.21875 347.03125 C 48.832031 346.496094 48.484375 345.929688 48.183594 345.335938 C 47.882812 344.742188 47.632812 344.128906 47.425781 343.496094 C 47.222656 342.863281 47.070312 342.21875 46.964844 341.5625 C 46.863281 340.90625 46.8125 340.246094 46.8125 339.582031 C 46.8125 338.917969 46.863281 338.257812 46.964844 337.601562 C 47.070312 336.945312 47.222656 336.300781 47.425781 335.667969 C 47.632812 335.035156 47.882812 334.421875 48.183594 333.828125 C 48.484375 333.234375 48.832031 332.667969 49.21875 332.128906 L 104.03125 259.144531 L 18.753906 222.714844 C 18.132812 222.453125 17.535156 222.144531 16.964844 221.789062 C 16.390625 221.433594 15.847656 221.035156 15.339844 220.59375 C 14.832031 220.152344 14.359375 219.671875 13.925781 219.15625 C 13.492188 218.640625 13.105469 218.089844 12.757812 217.511719 C 12.410156 216.933594 12.113281 216.332031 11.863281 215.707031 C 11.609375 215.082031 11.410156 214.441406 11.261719 213.78125 C 11.113281 213.125 11.019531 212.460938 10.976562 211.789062 C 10.933594 211.113281 10.941406 210.441406 11.007812 209.773438 C 11.070312 209.101562 11.1875 208.441406 11.355469 207.789062 C 11.523438 207.136719 11.742188 206.5 12.011719 205.882812 C 12.28125 205.265625 12.597656 204.671875 12.960938 204.105469 C 13.324219 203.535156 13.730469 203 14.179688 202.5 C 14.628906 201.996094 15.113281 201.53125 15.636719 201.105469 C 16.160156 200.679688 16.714844 200.296875 17.296875 199.957031 C 17.878906 199.621094 18.484375 199.328125 19.117188 199.085938 C 19.746094 198.84375 20.390625 198.652344 21.050781 198.515625 L 110.277344 178.769531 L 67.703125 96.742188 C 67.386719 96.144531 67.125 95.527344 66.910156 94.886719 C 66.695312 94.246094 66.53125 93.59375 66.417969 92.929688 C 66.308594 92.265625 66.25 91.59375 66.246094 90.917969 C 66.238281 90.246094 66.289062 89.574219 66.390625 88.90625 C 66.492188 88.242188 66.644531 87.585938 66.851562 86.945312 C 67.058594 86.300781 67.3125 85.679688 67.617188 85.078125 C 67.921875 84.476562 68.273438 83.902344 68.667969 83.355469 C 69.0625 82.808594 69.5 82.296875 69.976562 81.820312 C 70.457031 81.34375 70.96875 80.90625 71.515625 80.511719 C 72.058594 80.117188 72.636719 79.765625 73.238281 79.460938 C 73.839844 79.15625 74.460938 78.902344 75.105469 78.695312 C 75.75 78.488281 76.402344 78.335938 77.070312 78.234375 C 77.738281 78.132812 78.410156 78.085938 79.082031 78.089844 C 79.757812 78.09375 80.429688 78.152344 81.09375 78.265625 C 81.761719 78.375 82.414062 78.539062 83.054688 78.753906 C 83.695312 78.96875 84.3125 79.234375 84.910156 79.546875 L 167.125 122.089844 L 186.882812 32.925781 C 187.015625 32.257812 187.203125 31.601562 187.441406 30.964844 C 187.683594 30.324219 187.96875 29.707031 188.308594 29.117188 C 188.644531 28.523438 189.03125 27.960938 189.457031 27.429688 C 189.886719 26.898438 190.355469 26.40625 190.863281 25.949219 C 191.371094 25.492188 191.910156 25.078125 192.484375 24.710938 C 193.058594 24.339844 193.660156 24.019531 194.285156 23.746094 C 194.910156 23.472656 195.554688 23.253906 196.214844 23.082031 C 196.878906 22.914062 197.546875 22.796875 198.226562 22.738281 C 198.886719 22.683594 199.550781 22.679688 200.210938 22.726562 C 200.871094 22.777344 201.523438 22.875 202.167969 23.027344 C 202.816406 23.175781 203.445312 23.375 204.058594 23.625 C 204.671875 23.875 205.265625 24.167969 205.832031 24.507812 C 206.398438 24.847656 206.9375 25.230469 207.445312 25.65625 C 207.957031 26.082031 208.429688 26.542969 208.863281 27.039062 C 209.300781 27.539062 209.695312 28.066406 210.050781 28.628906 C 210.402344 29.1875 210.710938 29.769531 210.976562 30.378906 L 247.558594 115.71875 L 320.597656 60.949219 C 321.128906 60.5625 321.6875 60.21875 322.273438 59.921875 C 322.859375 59.621094 323.464844 59.367188 324.089844 59.160156 C 324.714844 58.957031 325.351562 58.800781 326 58.691406 C 326.648438 58.585938 327.304688 58.527344 327.960938 58.519531 C 328.617188 58.515625 329.273438 58.558594 329.925781 58.652344 C 330.574219 58.75 331.214844 58.894531 331.84375 59.085938 C 332.472656 59.28125 333.082031 59.523438 333.671875 59.8125 C 334.265625 60.097656 334.832031 60.429688 335.371094 60.808594 C 335.910156 61.183594 336.417969 61.597656 336.894531 62.050781 C 337.367188 62.507812 337.804688 62.996094 338.207031 63.515625 C 338.605469 64.039062 338.964844 64.589844 339.277344 65.167969 C 339.59375 65.746094 339.859375 66.34375 340.082031 66.960938 C 340.304688 67.582031 340.476562 68.210938 340.601562 68.859375 C 340.726562 69.503906 340.800781 70.15625 340.820312 70.8125 C 340.84375 71.46875 340.816406 72.125 340.738281 72.777344 C 340.660156 73.429688 340.53125 74.074219 340.355469 74.707031 L 313.96875 162.847656 L 406.128906 167.816406 Z M 404.726562 193.292969 " fill-opacity="1" fill-rule="nonzero"/></g></svg>