<svg xmlns="http://www.w3.org/2000/svg" xmlns:xlink="http://www.w3.org/1999/xlink" width="1080" zoomAndPan="magnify" viewBox="0 0 810 809.999993" height="1080" preserveAspectRatio="xMidYMid meet" version="1.0"><defs><clipPath id="27090098da"><path d="M 21 105 L 295 105 L 295 419 L 21 419 Z M 21 105 " clip-rule="nonzero"/></clipPath><clipPath id="9aed07cf6f"><path d="M -42.558594 273.484375 L 340.339844 -109.414062 L 891.355469 441.601562 L 508.457031 824.5 Z M -42.558594 273.484375 " clip-rule="nonzero"/></clipPath><clipPath id="f009282251"><path d="M 340.292969 -109.363281 L -42.605469 273.535156 L 508.40625 824.546875 L 891.304688 441.648438 Z M 340.292969 -109.363281 " clip-rule="nonzero"/></clipPath><clipPath id="ab1714e69c"><path d="M 340.292969 -109.363281 L -42.605469 273.535156 L 508.40625 824.546875 L 891.304688 441.648438 Z M 340.292969 -109.363281 " clip-rule="nonzero"/></clipPath><clipPath id="ec3f0d2e60"><path d="M 100 193 L 221 193 L 221 322 L 100 322 Z M 100 193 " clip-rule="nonzero"/></clipPath><clipPath id="c8ce0610e7"><path d="M -42.558594 273.484375 L 340.339844 -109.414062 L 891.355469 441.601562 L 508.457031 824.5 Z M -42.558594 273.484375 " clip-rule="nonzero"/></clipPath><clipPath id="ee50fde6b4"><path d="M 340.292969 -109.363281 L -42.605469 273.535156 L 508.40625 824.546875 L 891.304688 441.648438 Z M 340.292969 -109.363281 " clip-rule="nonzero"/></clipPath><clipPath id="a8235b5a94"><path d="M 340.292969 -109.363281 L -42.605469 273.535156 L 508.40625 824.546875 L 891.304688 441.648438 Z M 340.292969 -109.363281 " clip-rule="nonzero"/></clipPath><clipPath id="a71530e0e2"><path d="M 149 225 L 330 225 L 330 292 L 149 292 Z M 149 225 " clip-rule="nonzero"/></clipPath><clipPath id="e75b6a6c58"><path d="M -42.558594 273.484375 L 340.339844 -109.414062 L 891.355469 441.601562 L 508.457031 824.5 Z M -42.558594 273.484375 " clip-rule="nonzero"/></clipPath><clipPath id="8a7587b268"><path d="M 340.292969 -109.363281 L -42.605469 273.535156 L 508.40625 824.546875 L 891.304688 441.648438 Z M 340.292969 -109.363281 " clip-rule="nonzero"/></clipPath><clipPath id="8c15742372"><path d="M 340.292969 -109.363281 L -42.605469 273.535156 L 508.40625 824.546875 L 891.304688 441.648438 Z M 340.292969 -109.363281 " clip-rule="nonzero"/></clipPath><clipPath id="60921aa779"><path d="M 287 217 L 404 217 L 404 335 L 287 335 Z M 287 217 " clip-rule="nonzero"/></clipPath><clipPath id="3b32eb3b02"><path d="M -42.558594 273.484375 L 340.339844 -109.414062 L 891.355469 441.601562 L 508.457031 824.5 Z M -42.558594 273.484375 " clip-rule="nonzero"/></clipPath><clipPath id="caea53cd3d"><path d="M 340.292969 -109.363281 L -42.605469 273.535156 L 508.40625 824.546875 L 891.304688 441.648438 Z M 340.292969 -109.363281 " clip-rule="nonzero"/></clipPath><clipPath id="6baae52ca4"><path d="M 340.292969 -109.363281 L -42.605469 273.535156 L 508.40625 824.546875 L 891.304688 441.648438 Z M 340.292969 -109.363281 " clip-rule="nonzero"/></clipPath><clipPath id="2e9b340619"><path d="M 270 184 L 785 184 L 785 700 L 270 700 Z M 270 184 " clip-rule="nonzero"/></clipPath><clipPath id="aae6786b04"><path d="M -42.558594 273.484375 L 340.339844 -109.414062 L 891.355469 441.601562 L 508.457031 824.5 Z M -42.558594 273.484375 " clip-rule="nonzero"/></clipPath><clipPath id="8fc3675059"><path d="M 340.292969 -109.363281 L -42.605469 273.535156 L 508.40625 824.546875 L 891.304688 441.648438 Z M 340.292969 -109.363281 " clip-rule="nonzero"/></clipPath><clipPath id="6f605e917a"><path d="M 340.292969 -109.363281 L -42.605469 273.535156 L 508.40625 824.546875 L 891.304688 441.648438 Z M 340.292969 -109.363281 " clip-rule="nonzero"/></clipPath><clipPath id="0397d8e9ab"><path d="M 483 207 L 586 207 L 586 310 L 483 310 Z M 483 207 " clip-rule="nonzero"/></clipPath><clipPath id="1d61777e8c"><path d="M -42.558594 273.484375 L 340.339844 -109.414062 L 891.355469 441.601562 L 508.457031 824.5 Z M -42.558594 273.484375 " clip-rule="nonzero"/></clipPath><clipPath id="b07e39ab0d"><path d="M 340.292969 -109.363281 L -42.605469 273.535156 L 508.40625 824.546875 L 891.304688 441.648438 Z M 340.292969 -109.363281 " clip-rule="nonzero"/></clipPath><clipPath id="2b80c2c203"><path d="M 340.292969 -109.363281 L -42.605469 273.535156 L 508.40625 824.546875 L 891.304688 441.648438 Z M 340.292969 -109.363281 " clip-rule="nonzero"/></clipPath><clipPath id="fbd0f908b0"><path d="M 597 266 L 649 266 L 649 318 L 597 318 Z M 597 266 " clip-rule="nonzero"/></clipPath><clipPath id="3d2ebd3420"><path d="M -42.558594 273.484375 L 340.339844 -109.414062 L 891.355469 441.601562 L 508.457031 824.5 Z M -42.558594 273.484375 " clip-rule="nonzero"/></clipPath><clipPath id="4834136ad6"><path d="M 340.292969 -109.363281 L -42.605469 273.535156 L 508.40625 824.546875 L 891.304688 441.648438 Z M 340.292969 -109.363281 " clip-rule="nonzero"/></clipPath><clipPath id="50846ab545"><path d="M 340.292969 -109.363281 L -42.605469 273.535156 L 508.40625 824.546875 L 891.304688 441.648438 Z M 340.292969 -109.363281 " clip-rule="nonzero"/></clipPath><clipPath id="0b8c48d0ca"><path d="M 270 400 L 785 400 L 785 700 L 270 700 Z M 270 400 " clip-rule="nonzero"/></clipPath><clipPath id="a0ae1b7b53"><path d="M -42.558594 273.484375 L 340.339844 -109.414062 L 891.355469 441.601562 L 508.457031 824.5 Z M -42.558594 273.484375 " clip-rule="nonzero"/></clipPath><clipPath id="2f3f26a030"><path d="M 340.292969 -109.363281 L -42.605469 273.535156 L 508.40625 824.546875 L 891.304688 441.648438 Z M 340.292969 -109.363281 " clip-rule="nonzero"/></clipPath><clipPath id="19c0496466"><path d="M 340.292969 -109.363281 L -42.605469 273.535156 L 508.40625 824.546875 L 891.304688 441.648438 Z M 340.292969 -109.363281 " clip-rule="nonzero"/></clipPath></defs><g clip-path="url(#27090098da)"><g clip-path="url(#9aed07cf6f)"><g clip-path="url(#f009282251)"><g clip-path="url(#ab1714e69c)"><path fill="#f8b051" d="M 130.9375 311.84375 L 21.011719 337.105469 L 84.382812 274.5625 L 38.605469 249.253906 L 103.230469 243.332031 L 78.453125 170.214844 L 120.785156 184.558594 L 125.816406 105.289062 L 168.414062 180.238281 L 221.054688 147.597656 L 214.015625 216.386719 L 294.097656 193.726562 L 243.011719 238.707031 L 286.570312 276.214844 L 235.582031 292.078125 L 277.128906 337.710938 L 208.003906 302.621094 L 202.769531 418.824219 L 153.808594 334.988281 L 141.109375 351.222656 Z M 130.9375 311.84375 " fill-opacity="1" fill-rule="nonzero"/></g></g></g></g><g clip-path="url(#ec3f0d2e60)"><g clip-path="url(#c8ce0610e7)"><g clip-path="url(#ee50fde6b4)"><g clip-path="url(#a8235b5a94)"><path fill="#e83c37" d="M 144.378906 279.273438 L 104.410156 292.890625 L 117.550781 269.046875 L 100.363281 260.007812 L 130.980469 246.125 L 118.988281 210.75 L 139.46875 217.691406 L 141.828125 193.320312 L 154.949219 222.941406 L 156.351562 223.414062 L 187.980469 199.804688 L 187.679688 223.121094 L 214.351562 229.789062 L 190.121094 240.347656 L 187.46875 239.261719 L 220.070312 261.644531 L 195.011719 269.707031 L 200.691406 281.023438 L 181.671875 274.808594 L 175.132812 311.339844 L 155.449219 290.46875 L 145.847656 321.710938 Z M 144.378906 279.273438 " fill-opacity="1" fill-rule="nonzero"/></g></g></g></g><g clip-path="url(#a71530e0e2)"><g clip-path="url(#e75b6a6c58)"><g clip-path="url(#8a7587b268)"><g clip-path="url(#8c15742372)"><path fill="#bad5f1" d="M 169.910156 251.632812 C 196.007812 277.066406 223.035156 267.765625 247.941406 245.710938 C 259.53125 235.449219 267.441406 227.332031 283.386719 225.664062 C 296.589844 224.289062 312.105469 234.207031 323.148438 240.042969 C 336.519531 247.101562 324.882812 267.40625 311.59375 260.390625 C 304.667969 256.738281 297.890625 253.152344 290.484375 250.539062 C 277.507812 245.960938 268.980469 258.253906 260.402344 265.847656 C 249.433594 275.5625 237.039062 282.972656 223.367188 288.140625 C 197.496094 297.914062 171.9375 286.277344 153.367188 268.175781 C 142.566406 257.648438 159.117188 241.117188 169.910156 251.632812 Z M 169.910156 251.632812 " fill-opacity="1" fill-rule="nonzero"/></g></g></g></g><g clip-path="url(#60921aa779)"><g clip-path="url(#3b32eb3b02)"><g clip-path="url(#caea53cd3d)"><g clip-path="url(#6baae52ca4)"><path fill="#131328" d="M 303.078125 318.515625 C 324.46875 339.90625 359.160156 339.898438 380.5625 318.496094 L 387.769531 311.289062 C 409.171875 289.886719 409.1875 255.191406 387.796875 233.800781 C 366.40625 212.40625 331.710938 212.417969 310.304688 233.820312 L 303.097656 241.03125 C 281.691406 262.433594 281.6875 297.125 303.078125 318.515625 Z M 303.078125 318.515625 " fill-opacity="1" fill-rule="nonzero"/></g></g></g></g><g clip-path="url(#2e9b340619)"><g clip-path="url(#aae6786b04)"><g clip-path="url(#8fc3675059)"><g clip-path="url(#6f605e917a)"><path fill="#181930" d="M 345.34375 623.949219 C 348.324219 626.925781 351.371094 629.828125 354.492188 632.65625 C 357.613281 635.484375 360.800781 638.234375 364.058594 640.90625 C 367.3125 643.578125 370.632812 646.167969 374.015625 648.675781 C 377.398438 651.183594 380.839844 653.609375 384.339844 655.949219 C 387.84375 658.289062 391.402344 660.539062 395.011719 662.703125 C 398.625 664.867188 402.289062 666.945312 406.003906 668.929688 C 409.71875 670.914062 413.480469 672.804688 417.285156 674.605469 C 421.09375 676.40625 424.945312 678.109375 428.835938 679.722656 C 432.726562 681.332031 436.65625 682.847656 440.621094 684.265625 C 444.585938 685.683594 448.585938 687.003906 452.617188 688.226562 C 456.648438 689.449219 460.703125 690.570312 464.789062 691.59375 C 468.875 692.613281 472.984375 693.535156 477.117188 694.355469 C 481.246094 695.175781 485.398438 695.894531 489.5625 696.511719 C 493.730469 697.128906 497.910156 697.644531 502.101562 698.058594 C 506.292969 698.46875 510.492188 698.777344 514.699219 698.984375 C 518.90625 699.1875 523.117188 699.289062 527.328125 699.289062 C 531.542969 699.289062 535.753906 699.183594 539.960938 698.976562 C 544.167969 698.769531 548.367188 698.457031 552.558594 698.042969 C 556.75 697.628906 560.929688 697.113281 565.097656 696.492188 C 569.265625 695.875 573.414062 695.152344 577.546875 694.332031 C 581.679688 693.507812 585.785156 692.585938 589.875 691.558594 C 593.960938 690.535156 598.019531 689.410156 602.050781 688.1875 C 606.082031 686.964844 610.082031 685.640625 614.046875 684.222656 C 618.011719 682.800781 621.941406 681.285156 625.835938 679.671875 C 629.726562 678.058594 633.578125 676.351562 637.386719 674.546875 C 641.195312 672.746094 644.957031 670.851562 648.671875 668.867188 C 652.386719 666.878906 656.050781 664.800781 659.664062 662.636719 C 663.28125 660.46875 666.839844 658.214844 670.339844 655.875 C 673.84375 653.53125 677.289062 651.105469 680.671875 648.597656 C 684.054688 646.085938 687.375 643.496094 690.632812 640.820312 C 693.890625 638.148438 697.078125 635.398438 700.203125 632.566406 C 703.324219 629.738281 706.375 626.832031 709.355469 623.855469 C 712.332031 620.875 715.238281 617.824219 718.066406 614.703125 C 720.898438 611.578125 723.648438 608.390625 726.320312 605.132812 C 728.996094 601.875 731.585938 598.554688 734.097656 595.171875 C 736.605469 591.789062 739.03125 588.34375 741.375 584.839844 C 743.714844 581.335938 745.96875 577.777344 748.136719 574.164062 C 750.300781 570.550781 752.378906 566.886719 754.367188 563.171875 C 756.351562 559.457031 758.246094 555.695312 760.046875 551.886719 C 761.851562 548.078125 763.558594 544.226562 765.171875 540.335938 C 766.785156 536.441406 768.300781 532.511719 769.722656 528.546875 C 771.140625 524.582031 772.464844 520.582031 773.6875 516.550781 C 774.910156 512.519531 776.035156 508.460938 777.058594 504.371094 C 778.085938 500.285156 779.007812 496.175781 779.832031 492.046875 C 780.652344 487.914062 781.375 483.765625 781.992188 479.597656 C 782.613281 475.429688 783.128906 471.25 783.542969 467.058594 C 783.957031 462.867188 784.269531 458.667969 784.476562 454.460938 C 784.683594 450.253906 784.789062 446.042969 784.789062 441.828125 C 784.789062 437.617188 784.6875 433.40625 784.484375 429.199219 C 784.277344 424.992188 783.96875 420.792969 783.558594 416.601562 C 783.144531 412.410156 782.628906 408.230469 782.015625 404.0625 C 781.398438 399.894531 780.679688 395.746094 779.855469 391.617188 C 779.035156 387.484375 778.113281 383.375 777.09375 379.289062 C 776.070312 375.203125 774.949219 371.144531 773.726562 367.117188 C 772.503906 363.085938 771.183594 359.085938 769.765625 355.121094 C 768.347656 351.15625 766.832031 347.226562 765.222656 343.335938 C 763.613281 339.445312 761.90625 335.59375 760.105469 331.785156 C 758.304688 327.980469 756.414062 324.21875 754.429688 320.503906 C 752.445312 316.789062 750.371094 313.125 748.203125 309.511719 C 746.039062 305.898438 743.789062 302.34375 741.449219 298.839844 C 739.109375 295.339844 736.683594 291.898438 734.175781 288.515625 C 731.667969 285.132812 729.078125 281.8125 726.40625 278.558594 C 723.734375 275.300781 720.984375 272.113281 718.15625 268.992188 C 715.328125 265.871094 712.425781 262.824219 709.449219 259.84375 C 706.472656 256.867188 703.421875 253.964844 700.300781 251.136719 C 697.179688 248.308594 693.992188 245.558594 690.738281 242.886719 C 687.480469 240.214844 684.164062 237.625 680.78125 235.117188 C 677.398438 232.609375 673.953125 230.183594 670.453125 227.84375 C 666.949219 225.503906 663.394531 223.253906 659.78125 221.089844 C 656.167969 218.925781 652.503906 216.851562 648.789062 214.863281 C 645.074219 212.878906 641.316406 210.988281 637.507812 209.1875 C 633.699219 207.386719 629.851562 205.683594 625.957031 204.070312 C 622.066406 202.460938 618.140625 200.945312 614.171875 199.527344 C 610.207031 198.109375 606.210938 196.789062 602.179688 195.566406 C 598.148438 194.347656 594.089844 193.222656 590.003906 192.203125 C 585.917969 191.179688 581.808594 190.257812 577.675781 189.4375 C 573.546875 188.617188 569.398438 187.898438 565.230469 187.28125 C 561.0625 186.664062 556.882812 186.148438 552.691406 185.738281 C 548.5 185.324219 544.300781 185.015625 540.09375 184.8125 C 535.886719 184.605469 531.675781 184.503906 527.464844 184.503906 C 523.25 184.503906 519.042969 184.609375 514.835938 184.816406 C 510.628906 185.023438 506.425781 185.335938 502.234375 185.75 C 498.042969 186.164062 493.863281 186.679688 489.695312 187.300781 C 485.527344 187.917969 481.378906 188.640625 477.246094 189.460938 C 473.117188 190.285156 469.007812 191.210938 464.921875 192.234375 C 460.835938 193.257812 456.777344 194.382812 452.742188 195.605469 C 448.710938 196.832031 444.714844 198.152344 440.746094 199.574219 C 436.78125 200.992188 432.851562 202.507812 428.960938 204.121094 C 425.066406 205.734375 421.214844 207.441406 417.40625 209.246094 C 413.601562 211.046875 409.835938 212.941406 406.121094 214.929688 C 402.40625 216.914062 398.742188 218.992188 395.128906 221.15625 C 391.515625 223.324219 387.957031 225.578125 384.453125 227.917969 C 380.949219 230.261719 377.507812 232.6875 374.121094 235.195312 C 370.738281 237.707031 367.417969 240.296875 364.160156 242.972656 C 360.902344 245.644531 357.714844 248.398438 354.59375 251.226562 C 351.46875 254.054688 348.417969 256.960938 345.441406 259.941406 C 342.460938 262.917969 339.554688 265.96875 336.726562 269.09375 C 333.898438 272.214844 331.144531 275.402344 328.472656 278.660156 C 325.800781 281.917969 323.207031 285.238281 320.695312 288.621094 C 318.1875 292.007812 315.761719 295.449219 313.421875 298.953125 C 311.078125 302.457031 308.824219 306.015625 306.660156 309.628906 C 304.492188 313.242188 302.414062 316.90625 300.429688 320.621094 C 298.441406 324.335938 296.546875 328.097656 294.746094 331.90625 C 292.945312 335.714844 291.234375 339.566406 289.621094 343.457031 C 288.007812 347.351562 286.492188 351.28125 285.074219 355.246094 C 283.652344 359.214844 282.332031 363.210938 281.105469 367.242188 C 279.882812 371.273438 278.757812 375.332031 277.734375 379.421875 C 276.710938 383.507812 275.785156 387.617188 274.964844 391.746094 C 274.140625 395.878906 273.417969 400.027344 272.800781 404.195312 C 272.179688 408.363281 271.664062 412.542969 271.25 416.734375 C 270.835938 420.925781 270.523438 425.125 270.316406 429.332031 C 270.109375 433.542969 270.003906 437.75 270.003906 441.964844 C 270.003906 446.175781 270.105469 450.386719 270.3125 454.59375 C 270.515625 458.800781 270.824219 463 271.238281 467.191406 C 271.648438 471.382812 272.164062 475.5625 272.78125 479.730469 C 273.398438 483.898438 274.117188 488.046875 274.9375 492.175781 C 275.757812 496.308594 276.679688 500.417969 277.703125 504.503906 C 278.722656 508.589844 279.847656 512.648438 281.066406 516.679688 C 282.289062 520.707031 283.609375 524.707031 285.027344 528.671875 C 286.445312 532.636719 287.960938 536.566406 289.570312 540.457031 C 291.183594 544.351562 292.886719 548.199219 294.6875 552.007812 C 296.488281 555.8125 298.378906 559.574219 300.367188 563.289062 C 302.351562 567.003906 304.425781 570.667969 306.589844 574.28125 C 308.753906 577.894531 311.007812 581.449219 313.34375 584.953125 C 315.683594 588.453125 318.109375 591.898438 320.617188 595.28125 C 323.125 598.664062 325.714844 601.980469 328.386719 605.238281 C 331.058594 608.492188 333.808594 611.679688 336.636719 614.800781 C 339.464844 617.921875 342.367188 620.96875 345.34375 623.949219 Z M 345.34375 623.949219 " fill-opacity="1" fill-rule="nonzero"/></g></g></g></g><g clip-path="url(#0397d8e9ab)"><g clip-path="url(#1d61777e8c)"><g clip-path="url(#b07e39ab0d)"><g clip-path="url(#2b80c2c203)"><path fill="#ffffff" d="M 498.605469 294.140625 C 499.785156 295.320312 501.019531 296.4375 502.3125 297.496094 C 503.601562 298.554688 504.941406 299.546875 506.328125 300.472656 C 507.714844 301.402344 509.144531 302.257812 510.617188 303.042969 C 512.085938 303.832031 513.59375 304.542969 515.136719 305.179688 C 516.675781 305.820312 518.246094 306.378906 519.84375 306.863281 C 521.441406 307.347656 523.058594 307.753906 524.695312 308.078125 C 526.332031 308.402344 527.980469 308.648438 529.640625 308.8125 C 531.300781 308.972656 532.964844 309.054688 534.636719 309.054688 C 536.304688 309.054688 537.96875 308.972656 539.628906 308.808594 C 541.292969 308.644531 542.941406 308.398438 544.578125 308.074219 C 546.214844 307.746094 547.832031 307.34375 549.429688 306.855469 C 551.027344 306.371094 552.59375 305.808594 554.136719 305.171875 C 555.679688 304.53125 557.1875 303.820312 558.660156 303.03125 C 560.128906 302.246094 561.5625 301.386719 562.949219 300.460938 C 564.335938 299.53125 565.675781 298.539062 566.964844 297.480469 C 568.257812 296.421875 569.492188 295.300781 570.671875 294.121094 C 571.851562 292.941406 572.972656 291.703125 574.03125 290.414062 C 575.089844 289.125 576.082031 287.785156 577.011719 286.398438 C 577.9375 285.007812 578.796875 283.578125 579.582031 282.105469 C 580.371094 280.636719 581.082031 279.128906 581.722656 277.585938 C 582.363281 276.042969 582.925781 274.472656 583.410156 272.875 C 583.894531 271.28125 584.300781 269.664062 584.625 268.027344 C 584.949219 266.386719 585.195312 264.738281 585.359375 263.078125 C 585.523438 261.417969 585.605469 259.753906 585.605469 258.082031 C 585.605469 256.414062 585.527344 254.75 585.363281 253.089844 C 585.199219 251.429688 584.957031 249.78125 584.628906 248.144531 C 584.304688 246.507812 583.902344 244.890625 583.417969 243.292969 C 582.933594 241.695312 582.371094 240.125 581.734375 238.585938 C 581.09375 237.042969 580.382812 235.535156 579.597656 234.0625 C 578.808594 232.59375 577.953125 231.164062 577.027344 229.777344 C 576.097656 228.386719 575.105469 227.050781 574.046875 225.757812 C 572.988281 224.46875 571.871094 223.234375 570.691406 222.054688 C 569.511719 220.875 568.277344 219.757812 566.988281 218.699219 C 565.695312 217.640625 564.359375 216.648438 562.96875 215.71875 C 561.582031 214.792969 560.152344 213.9375 558.683594 213.148438 C 557.210938 212.363281 555.703125 211.652344 554.160156 211.011719 C 552.621094 210.375 551.050781 209.8125 549.453125 209.328125 C 547.855469 208.84375 546.238281 208.441406 544.601562 208.117188 C 542.964844 207.789062 541.316406 207.546875 539.65625 207.382812 C 537.996094 207.21875 536.332031 207.140625 534.664062 207.140625 C 532.992188 207.140625 531.328125 207.222656 529.667969 207.386719 C 528.007812 207.550781 526.359375 207.796875 524.71875 208.121094 C 523.082031 208.445312 521.464844 208.851562 519.871094 209.335938 C 518.273438 209.824219 516.703125 210.382812 515.160156 211.023438 C 513.617188 211.664062 512.109375 212.375 510.640625 213.164062 C 509.167969 213.949219 507.738281 214.808594 506.347656 215.734375 C 504.960938 216.664062 503.621094 217.65625 502.332031 218.714844 C 501.042969 219.773438 499.804688 220.894531 498.625 222.074219 C 497.445312 223.253906 496.324219 224.488281 495.265625 225.78125 C 494.207031 227.070312 493.214844 228.410156 492.285156 229.796875 C 491.359375 231.183594 490.5 232.617188 489.714844 234.085938 C 488.925781 235.558594 488.214844 237.066406 487.574219 238.609375 C 486.9375 240.152344 486.375 241.71875 485.890625 243.316406 C 485.402344 244.914062 485 246.53125 484.671875 248.167969 C 484.347656 249.804688 484.101562 251.453125 483.9375 253.117188 C 483.773438 254.777344 483.691406 256.441406 483.691406 258.109375 C 483.691406 259.78125 483.773438 261.445312 483.933594 263.105469 C 484.097656 264.765625 484.34375 266.414062 484.667969 268.050781 C 484.992188 269.6875 485.398438 271.304688 485.882812 272.902344 C 486.367188 274.5 486.925781 276.070312 487.566406 277.609375 C 488.203125 279.152344 488.914062 280.660156 489.703125 282.128906 C 490.488281 283.601562 491.34375 285.03125 492.273438 286.417969 C 493.199219 287.804688 494.191406 289.144531 495.25 290.433594 C 496.308594 291.726562 497.425781 292.960938 498.605469 294.140625 Z M 498.605469 294.140625 " fill-opacity="0.298" fill-rule="nonzero"/></g></g></g></g><g clip-path="url(#fbd0f908b0)"><g clip-path="url(#3d2ebd3420)"><g clip-path="url(#4834136ad6)"><g clip-path="url(#50846ab545)"><path fill="#ffffff" d="M 604.914062 310.34375 C 605.503906 310.933594 606.121094 311.496094 606.765625 312.023438 C 607.410156 312.554688 608.082031 313.050781 608.773438 313.511719 C 609.46875 313.976562 610.183594 314.40625 610.917969 314.796875 C 611.65625 315.191406 612.410156 315.546875 613.179688 315.867188 C 613.949219 316.1875 614.734375 316.464844 615.535156 316.707031 C 616.332031 316.949219 617.140625 317.152344 617.960938 317.316406 C 618.777344 317.476562 619.601562 317.601562 620.433594 317.683594 C 621.261719 317.761719 622.09375 317.804688 622.929688 317.804688 C 623.765625 317.804688 624.597656 317.761719 625.429688 317.679688 C 626.257812 317.597656 627.082031 317.476562 627.902344 317.3125 C 628.71875 317.148438 629.527344 316.949219 630.328125 316.703125 C 631.125 316.460938 631.910156 316.179688 632.683594 315.863281 C 633.453125 315.542969 634.207031 315.1875 634.941406 314.792969 C 635.679688 314.398438 636.394531 313.96875 637.089844 313.507812 C 637.78125 313.042969 638.453125 312.546875 639.097656 312.015625 C 639.742188 311.484375 640.359375 310.925781 640.949219 310.335938 C 641.539062 309.746094 642.101562 309.128906 642.628906 308.484375 C 643.160156 307.835938 643.65625 307.167969 644.121094 306.472656 C 644.585938 305.78125 645.011719 305.066406 645.40625 304.328125 C 645.800781 303.59375 646.15625 302.839844 646.476562 302.066406 C 646.796875 301.296875 647.078125 300.511719 647.320312 299.710938 C 647.5625 298.914062 647.765625 298.105469 647.929688 297.285156 C 648.089844 296.46875 648.214844 295.644531 648.296875 294.8125 C 648.378906 293.984375 648.417969 293.148438 648.417969 292.316406 C 648.417969 291.480469 648.378906 290.648438 648.296875 289.816406 C 648.214844 288.988281 648.09375 288.164062 647.929688 287.34375 C 647.769531 286.527344 647.566406 285.71875 647.324219 284.917969 C 647.082031 284.121094 646.800781 283.335938 646.480469 282.5625 C 646.164062 281.792969 645.804688 281.039062 645.414062 280.304688 C 645.019531 279.566406 644.589844 278.851562 644.128906 278.160156 C 643.664062 277.464844 643.167969 276.796875 642.640625 276.152344 C 642.109375 275.507812 641.550781 274.890625 640.960938 274.300781 C 640.371094 273.710938 639.753906 273.148438 639.109375 272.621094 C 638.460938 272.089844 637.792969 271.59375 637.097656 271.132812 C 636.40625 270.667969 635.691406 270.238281 634.953125 269.847656 C 634.21875 269.453125 633.464844 269.097656 632.695312 268.777344 C 631.921875 268.457031 631.140625 268.175781 630.339844 267.933594 C 629.542969 267.691406 628.734375 267.492188 627.914062 267.328125 C 627.097656 267.164062 626.273438 267.042969 625.441406 266.960938 C 624.609375 266.878906 623.777344 266.839844 622.945312 266.839844 C 622.109375 266.839844 621.277344 266.882812 620.445312 266.964844 C 619.613281 267.046875 618.789062 267.167969 617.972656 267.332031 C 617.152344 267.492188 616.34375 267.695312 615.546875 267.9375 C 614.746094 268.183594 613.960938 268.460938 613.191406 268.78125 C 612.421875 269.101562 611.667969 269.457031 610.929688 269.851562 C 610.195312 270.246094 609.480469 270.675781 608.785156 271.136719 C 608.089844 271.601562 607.421875 272.097656 606.777344 272.628906 C 606.132812 273.15625 605.511719 273.71875 604.921875 274.308594 C 604.332031 274.898438 603.773438 275.515625 603.242188 276.160156 C 602.714844 276.808594 602.21875 277.476562 601.753906 278.171875 C 601.289062 278.863281 600.859375 279.578125 600.46875 280.316406 C 600.074219 281.050781 599.714844 281.804688 599.398438 282.578125 C 599.078125 283.347656 598.796875 284.132812 598.554688 284.929688 C 598.3125 285.730469 598.109375 286.539062 597.945312 287.355469 C 597.78125 288.175781 597.660156 289 597.578125 289.832031 C 597.496094 290.660156 597.453125 291.496094 597.453125 292.328125 C 597.453125 293.164062 597.496094 293.996094 597.578125 294.828125 C 597.660156 295.65625 597.78125 296.480469 597.941406 297.300781 C 598.105469 298.117188 598.308594 298.925781 598.550781 299.726562 C 598.792969 300.523438 599.074219 301.308594 599.390625 302.078125 C 599.710938 302.851562 600.066406 303.605469 600.460938 304.339844 C 600.855469 305.074219 601.28125 305.789062 601.746094 306.484375 C 602.210938 307.179688 602.707031 307.847656 603.234375 308.492188 C 603.765625 309.136719 604.324219 309.753906 604.914062 310.34375 Z M 604.914062 310.34375 " fill-opacity="0.298" fill-rule="nonzero"/></g></g></g></g><g clip-path="url(#0b8c48d0ca)"><g clip-path="url(#a0ae1b7b53)"><g clip-path="url(#2f3f26a030)"><g clip-path="url(#19c0496466)"><path fill="#131328" d="M 270.175781 433.023438 C 337.355469 486.4375 421.5625 516.214844 507.957031 516.199219 C 608.691406 516.171875 706.5 475.660156 777.789062 404.375 C 779.039062 403.125 780.25 401.851562 781.480469 400.585938 C 794.191406 479.425781 770.160156 563.054688 709.355469 623.859375 C 608.808594 724.402344 445.835938 724.445312 345.34375 623.953125 C 292.828125 571.429688 267.789062 501.84375 270.175781 433.023438 Z M 270.175781 433.023438 " fill-opacity="1" fill-rule="nonzero"/></g></g></g></g></svg>